<svg width="234" height="26" viewBox="0 0 234 26" fill="none" xmlns="http://www.w3.org/2000/svg">
<path d="M17.4561 9.14049C17.4561 10.2252 17.2534 11.1729 16.848 11.9837C16.4426 12.7945 15.8948 13.4793 15.2045 14.0381C14.5143 14.5968 13.7418 15.0461 12.8872 15.3857L18.853 25.0001H12.7557L7.82529 16.2896H6.29686V25.0001H0.90625V2.22145H8.07182C11.1725 2.22145 13.5117 2.78571 15.0895 3.91423C16.6672 5.04275 17.4561 6.78484 17.4561 9.14049ZM11.9011 9.14049C11.9011 8.04484 11.5779 7.25049 10.9315 6.75745C10.296 6.25345 9.34825 6.00145 8.08825 6.00145H6.29686V12.5918H8.3019C9.47425 12.5918 10.3672 12.3179 10.9808 11.7701C11.5943 11.2222 11.9011 10.3457 11.9011 9.14049Z" fill="#2247FF"/>
<path d="M37.3786 18.344C37.3786 19.7574 37.0061 21.0064 36.2611 22.0911C35.527 23.1758 34.4697 24.0249 33.0892 24.6385C31.7086 25.2521 30.0487 25.5588 28.1094 25.5588C25.9619 25.5588 24.1596 25.2466 22.7024 24.6221C21.2561 23.9866 20.0564 23.2032 19.1031 22.2719L21.8313 19.2479C22.675 19.982 23.6063 20.5517 24.6252 20.9571C25.6442 21.3515 26.7618 21.5488 27.9779 21.5488C28.7339 21.5488 29.3968 21.4392 29.9665 21.2201C30.5363 21.0009 30.98 20.6832 31.2978 20.2668C31.6155 19.8505 31.7744 19.3465 31.7744 18.7548C31.7744 18.1961 31.6484 17.7249 31.3964 17.3415C31.1444 16.958 30.7171 16.6128 30.1145 16.3061C29.5228 15.9993 28.6956 15.687 27.6328 15.3693C25.8578 14.8215 24.428 14.2188 23.3433 13.5615C22.2696 12.9041 21.4862 12.1426 20.9932 11.277C20.5111 10.4115 20.27 9.40345 20.27 8.25302C20.27 6.86154 20.6535 5.67275 21.4205 4.68667C22.1984 3.70058 23.2392 2.95006 24.5431 2.4351C25.8469 1.90919 27.2822 1.64623 28.849 1.64623C30.613 1.64623 32.1688 1.90371 33.5165 2.41867C34.8641 2.92267 36.031 3.6458 37.0171 4.58806L34.4697 7.51345C33.7027 6.86702 32.8755 6.39041 31.988 6.08362C31.1005 5.76588 30.1966 5.60701 29.2763 5.60701C28.597 5.60701 27.9998 5.69467 27.4849 5.86997C26.9699 6.03432 26.57 6.28084 26.2852 6.60954C26.0003 6.93823 25.8578 7.3491 25.8578 7.84215C25.8578 8.32423 25.9948 8.72962 26.2687 9.05832C26.5426 9.38702 27.0192 9.69928 27.6985 9.9951C28.3778 10.28 29.3201 10.6141 30.5253 10.9976C31.9606 11.4359 33.1878 11.9618 34.2067 12.5754C35.2366 13.178 36.02 13.9395 36.5569 14.8598C37.1047 15.7801 37.3786 16.9415 37.3786 18.344Z" fill="#2247FF"/>
<path d="M51.812 9.64997C51.812 8.83919 51.6586 8.17084 51.3518 7.64493C51.056 7.10806 50.6013 6.71362 49.9877 6.46162C49.3851 6.19867 48.6236 6.06719 47.7033 6.06719H45.8626V13.5121H47.9827C48.7825 13.5121 49.4673 13.3752 50.037 13.1013C50.6067 12.8274 51.045 12.4055 51.3518 11.8358C51.6586 11.2661 51.812 10.5374 51.812 9.64997ZM57.3669 9.63354C57.3669 11.3975 56.9889 12.8548 56.2329 14.0052C55.4769 15.1556 54.4196 16.0157 53.061 16.5855C51.7024 17.1442 50.1247 17.4236 48.3278 17.4236H45.8626V25.0001H40.472V2.22145H47.6375C50.7273 2.22145 53.1213 2.83501 54.8195 4.06214C56.5178 5.28928 57.3669 7.14641 57.3669 9.63354Z" fill="#2247FF"/>
<path d="M71.3401 18.1139C71.3401 17.3141 71.1812 16.6841 70.8635 16.2239C70.5567 15.7528 70.1184 15.4186 69.5487 15.2214C68.9899 15.0241 68.3325 14.9255 67.5765 14.9255H65.3578V21.0721H67.3464C67.8723 21.0721 68.3709 21.0338 68.842 20.9571C69.3241 20.8804 69.7514 20.738 70.1239 20.5298C70.5074 20.3216 70.8032 20.0258 71.0114 19.6423C71.2305 19.2479 71.3401 18.7384 71.3401 18.1139ZM70.4855 8.58171C70.4855 7.68328 70.2006 7.03684 69.6309 6.64241C69.0721 6.23701 68.201 6.03432 67.0177 6.03432H65.3578V11.3099H67.1821C68.3435 11.3099 69.1816 11.0962 69.6966 10.6689C70.2225 10.2416 70.4855 9.54588 70.4855 8.58171ZM76.895 18.3275C76.895 19.6423 76.643 20.7325 76.139 21.5981C75.635 22.4636 74.9448 23.1429 74.0683 23.636C73.1917 24.129 72.1892 24.4796 71.0607 24.6878C69.9431 24.896 68.7653 25.0001 67.5272 25.0001H59.9672V2.22145H67.1821C68.3544 2.22145 69.461 2.32006 70.5019 2.51728C71.5537 2.70354 72.485 3.02128 73.2958 3.47049C74.1066 3.90875 74.7421 4.50588 75.2023 5.26188C75.6734 6.00693 75.909 6.93275 75.909 8.03936C75.909 8.94875 75.7172 9.73762 75.3337 10.406C74.9503 11.0634 74.4408 11.6057 73.8053 12.033C73.1698 12.4494 72.4796 12.7507 71.7345 12.9369C72.5453 13.0684 73.3451 13.3259 74.134 13.7094C74.9338 14.0819 75.5912 14.6407 76.1062 15.3857C76.6321 16.1308 76.895 17.1114 76.895 18.3275Z" fill="#2247FF"/>
<path d="M89.2412 0.61084V19.5108C89.2412 20.2121 89.4384 20.7161 89.8328 21.0228C90.2382 21.3187 90.7915 21.4666 91.4927 21.4666C91.9419 21.4666 92.3747 21.4173 92.7911 21.3187C93.2074 21.2091 93.5964 21.0831 93.9579 20.9407L95.207 24.4084C94.6153 24.7152 93.9032 24.9836 93.0705 25.2137C92.2378 25.4438 91.2681 25.5588 90.1615 25.5588C88.0579 25.5588 86.513 24.9562 85.5269 23.751C84.5408 22.5348 84.0478 20.9078 84.0478 18.8699V4.16075H78.9037V0.61084H89.2412Z" fill="#2247FF"/>
<path d="M105.039 7.54632V19.4944C105.039 20.3381 105.192 20.9188 105.499 21.2365C105.816 21.5542 106.255 21.7131 106.814 21.7131C107.35 21.7131 107.887 21.5433 108.424 21.2036C108.961 20.864 109.41 20.4038 109.772 19.8231V7.54632H114.965V25.0001H110.429L110.199 22.9621C109.607 23.8168 108.83 24.4632 107.865 24.9015C106.901 25.3397 105.893 25.5588 104.841 25.5588C103.154 25.5588 101.9 25.0713 101.078 24.0961C100.256 23.1101 99.8452 21.7898 99.8452 20.1354V7.54632H105.039Z" fill="#2247FF"/>
<path d="M124.057 17.7852C124.178 18.7384 124.424 19.5108 124.797 20.1025C125.18 20.6832 125.668 21.1105 126.259 21.3844C126.851 21.6474 127.514 21.7788 128.248 21.7788C129.048 21.7788 129.82 21.6474 130.565 21.3844C131.31 21.1215 132.028 20.7708 132.718 20.3326L134.806 23.1594C133.984 23.8606 132.987 24.4358 131.814 24.885C130.653 25.3342 129.327 25.5588 127.837 25.5588C125.843 25.5588 124.172 25.1644 122.825 24.3755C121.477 23.5757 120.463 22.4801 119.784 21.0886C119.105 19.6971 118.765 18.0975 118.765 16.2896C118.765 14.5695 119.094 13.0081 119.751 11.6057C120.409 10.1923 121.367 9.06928 122.627 8.23658C123.898 7.39293 125.449 6.9711 127.278 6.9711C128.944 6.9711 130.385 7.32719 131.601 8.03936C132.828 8.75154 133.776 9.77597 134.444 11.1127C135.123 12.4494 135.463 14.0545 135.463 15.9281C135.463 16.2239 135.452 16.5416 135.43 16.8813C135.419 17.2209 135.397 17.5222 135.364 17.7852H124.057ZM127.278 10.4553C126.347 10.4553 125.597 10.7895 125.027 11.4578C124.457 12.1261 124.112 13.1944 123.991 14.6626H130.401C130.39 13.3916 130.144 12.3727 129.661 11.6057C129.179 10.8388 128.385 10.4553 127.278 10.4553Z" fill="#2247FF"/>
<path d="M147.661 25.5588C145.503 25.5588 143.684 25.1041 142.205 24.1948C140.726 23.2744 139.603 21.9268 138.836 20.1518C138.08 18.3659 137.702 16.1691 137.702 13.5615C137.702 11.6221 137.97 9.91293 138.507 8.4338C139.055 6.94371 139.811 5.70015 140.775 4.7031C141.739 3.6951 142.862 2.93362 144.144 2.41867C145.426 1.90371 146.807 1.64623 148.286 1.64623C149.951 1.64623 151.354 1.90371 152.493 2.41867C153.632 2.93362 154.646 3.61293 155.533 4.45658L152.707 7.38197C152.016 6.76841 151.354 6.31371 150.718 6.01788C150.083 5.72206 149.359 5.57415 148.549 5.57415C147.782 5.57415 147.075 5.72754 146.429 6.03432C145.793 6.33014 145.234 6.80128 144.752 7.44771C144.281 8.08319 143.914 8.91041 143.651 9.92936C143.388 10.9374 143.257 12.159 143.257 13.5943C143.257 15.5775 143.416 17.1552 143.733 18.3275C144.062 19.4999 144.555 20.3435 145.212 20.8585C145.87 21.3625 146.702 21.6145 147.71 21.6145C148.247 21.6145 148.751 21.5542 149.222 21.4337C149.694 21.3022 150.132 21.1324 150.537 20.9242V15.7144H147.678L147.152 11.9344H155.632V23.258C154.493 23.9592 153.265 24.518 151.951 24.9343C150.647 25.3507 149.217 25.5588 147.661 25.5588Z" fill="#FF7918"/>
<path d="M173.665 19.971C173.665 20.6284 173.752 21.105 173.928 21.4008C174.114 21.6967 174.41 21.9213 174.815 22.0747L173.747 25.4931C172.717 25.3945 171.846 25.1699 171.134 24.8193C170.432 24.4577 169.879 23.9154 169.474 23.1922C168.805 23.9921 167.951 24.5892 166.91 24.9836C165.869 25.3671 164.806 25.5588 163.722 25.5588C161.925 25.5588 160.489 25.0494 159.416 24.0304C158.353 23.0005 157.821 21.6802 157.821 20.0696C157.821 18.1741 158.561 16.7115 160.04 15.6815C161.53 14.6516 163.623 14.1367 166.318 14.1367H168.668V13.4793C168.668 12.5699 168.373 11.8961 167.781 11.4578C167.2 11.0195 166.346 10.8004 165.217 10.8004C164.658 10.8004 163.941 10.8826 163.064 11.0469C162.188 11.2003 161.311 11.4249 160.435 11.7208L159.235 8.26945C160.363 7.84215 161.536 7.51893 162.752 7.2998C163.979 7.08067 165.075 6.9711 166.039 6.9711C168.636 6.9711 170.553 7.50249 171.791 8.56528C173.04 9.6171 173.665 11.1401 173.665 13.1341V19.971ZM165.513 21.8446C166.072 21.8446 166.658 21.6802 167.271 21.3515C167.885 21.0119 168.351 20.5353 168.668 19.9217V17.0949H167.387C165.94 17.0949 164.877 17.3195 164.198 17.7688C163.519 18.207 163.179 18.8535 163.179 19.7081C163.179 20.3764 163.382 20.9023 163.787 21.2858C164.204 21.6583 164.779 21.8446 165.513 21.8446Z" fill="#FF7918"/>
<path d="M191.582 6.9711C192.415 6.9711 193.1 7.14641 193.636 7.49701C194.173 7.84762 194.573 8.40093 194.836 9.15693C195.099 9.90197 195.231 10.8771 195.231 12.0823V25.0001H190.777V12.674C190.777 12.0604 190.717 11.6276 190.596 11.3756C190.486 11.1236 190.256 10.9976 189.906 10.9976C189.632 10.9976 189.347 11.0798 189.051 11.2441C188.766 11.3975 188.449 11.6934 188.098 12.1316V25.0001H184.449V12.674C184.449 12.0604 184.389 11.6276 184.269 11.3756C184.159 11.1236 183.929 10.9976 183.578 10.9976C183.304 10.9976 183.02 11.0798 182.724 11.2441C182.439 11.3975 182.121 11.6934 181.771 12.1316V25.0001H177.251V7.54632H181.064L181.409 9.2391C181.957 8.49406 182.51 7.9298 183.069 7.54632C183.628 7.16284 184.291 6.9711 185.057 6.9711C185.715 6.9711 186.274 7.14093 186.734 7.48058C187.205 7.80928 187.539 8.32971 187.736 9.04188C188.262 8.42832 188.843 7.9298 189.478 7.54632C190.114 7.16284 190.815 6.9711 191.582 6.9711Z" fill="#FF7918"/>
<path d="M202.893 17.7852C203.013 18.7384 203.26 19.5108 203.632 20.1025C204.016 20.6832 204.503 21.1105 205.095 21.3844C205.687 21.6474 206.35 21.7788 207.084 21.7788C207.884 21.7788 208.656 21.6474 209.401 21.3844C210.146 21.1215 210.864 20.7708 211.554 20.3326L213.641 23.1594C212.819 23.8606 211.822 24.4358 210.65 24.885C209.489 25.3342 208.163 25.5588 206.673 25.5588C204.679 25.5588 203.008 25.1644 201.66 24.3755C200.313 23.5757 199.299 22.4801 198.62 21.0886C197.94 19.6971 197.601 18.0975 197.601 16.2896C197.601 14.5695 197.93 13.0081 198.587 11.6057C199.244 10.1923 200.203 9.06928 201.463 8.23658C202.734 7.39293 204.284 6.9711 206.114 6.9711C207.779 6.9711 209.22 7.32719 210.436 8.03936C211.664 8.75154 212.611 9.77597 213.28 11.1127C213.959 12.4494 214.299 14.0545 214.299 15.9281C214.299 16.2239 214.288 16.5416 214.266 16.8813C214.255 17.2209 214.233 17.5222 214.2 17.7852H202.893ZM206.114 10.4553C205.183 10.4553 204.432 10.7895 203.862 11.4578C203.293 12.1261 202.948 13.1944 202.827 14.6626H209.237C209.226 13.3916 208.979 12.3727 208.497 11.6057C208.015 10.8388 207.221 10.4553 206.114 10.4553Z" fill="#FF7918"/>
<path d="M225.1 21.8446C225.965 21.8446 226.661 21.7076 227.187 21.4337C227.724 21.1598 227.992 20.7489 227.992 20.2011C227.992 19.8286 227.888 19.5163 227.68 19.2643C227.472 19.0123 227.072 18.7713 226.48 18.5412C225.889 18.3111 225.012 18.0372 223.851 17.7195C222.788 17.4346 221.846 17.073 221.024 16.6348C220.213 16.1965 219.578 15.6322 219.118 14.942C218.668 14.2517 218.444 13.3916 218.444 12.3617C218.444 11.3208 218.734 10.395 219.315 9.58423C219.895 8.77345 220.75 8.13797 221.879 7.6778C223.007 7.20667 224.388 6.9711 226.02 6.9711C227.576 6.9711 228.929 7.1738 230.08 7.57919C231.241 7.97362 232.243 8.47762 233.087 9.09119L231.016 12.1481C230.293 11.6988 229.515 11.3428 228.683 11.0798C227.85 10.8059 227.012 10.6689 226.168 10.6689C225.324 10.6689 224.694 10.784 224.278 11.0141C223.873 11.2332 223.67 11.5674 223.67 12.0166C223.67 12.3124 223.774 12.5699 223.982 12.789C224.201 12.9972 224.607 13.2163 225.198 13.4464C225.79 13.6655 226.656 13.9395 227.795 14.2681C228.924 14.5859 229.904 14.9529 230.737 15.3693C231.581 15.7856 232.233 16.3444 232.693 17.0456C233.153 17.7359 233.383 18.6508 233.383 19.7902C233.383 21.0612 233.005 22.1295 232.249 22.995C231.493 23.8496 230.49 24.4906 229.241 24.9179C227.992 25.3452 226.623 25.5588 225.133 25.5588C223.445 25.5588 221.955 25.3178 220.662 24.8357C219.37 24.3536 218.268 23.7181 217.359 22.9293L219.972 20.0039C220.651 20.5298 221.418 20.9681 222.273 21.3187C223.139 21.6693 224.081 21.8446 225.1 21.8446Z" fill="#FF7918"/>
</svg>
